<?xml version="1.0" encoding="utf-8"?>
<!-- Generator: Adobe Illustrator 27.8.1, SVG Export Plug-In . SVG Version: 6.00 Build 0)  -->
<svg version="1.1" id="_레이어_1" xmlns="http://www.w3.org/2000/svg" xmlns:xlink="http://www.w3.org/1999/xlink" x="0px"
	 y="0px" viewBox="0 0 1024 1024" style="enable-background:new 0 0 1024 1024;" xml:space="preserve">
<style type="text/css">
	.st0{fill:url(#SVGID_1_);}
</style>
<linearGradient id="SVGID_1_" gradientUnits="userSpaceOnUse" x1="0" y1="512" x2="1024" y2="512">
	<stop  offset="0" style="stop-color:#C864FF"/>
	<stop  offset="1" style="stop-color:#0080FF"/>
</linearGradient>
<path class="st0" d="M964,0H60C26.9,0,0,26.9,0,60v904c0,33.1,26.9,60,60,60h904c33.1,0,60-26.9,60-60V60C1024,26.9,997.1,0,964,0z
	 M923.9,892.4c0,17.4-14.1,31.5-31.5,31.5H131.5c-17.4,0-31.5-14.1-31.5-31.5V131.5c0-17.4,14.1-31.5,31.5-31.5h760.9
	c17.4,0,31.5,14.1,31.5,31.5V892.4z M247.8,332h58.3c17,0,30.8,13.8,30.8,30.8v58.3c0,17-13.8,30.8-30.8,30.8h-58.3
	c-17,0-30.8-13.8-30.8-30.8v-58.3C217,345.8,230.8,332,247.8,332z M247.8,572h58.3c17,0,30.8,13.8,30.8,30.8v58.3
	c0,17-13.8,30.8-30.8,30.8h-58.3c-17,0-30.8-13.8-30.8-30.8v-58.3C217,585.8,230.8,572,247.8,572z M467.4,321.5l179.9,179.9
	c5.9,5.9,5.9,15.4,0,21.2L467.4,702.5c-11.7,11.7-11.7,30.7,0,42.4l38.4,38.4c11.7,11.7,30.7,11.7,42.4,0l250.1-250.1
	c11.7-11.7,11.7-30.7,0-42.4L548.2,240.7c-11.7-11.7-30.7-11.7-42.4,0l-38.4,38.4C455.6,290.8,455.6,309.8,467.4,321.5z"/>
</svg>
